<svg id="svg" version="1.1" xmlns="http://www.w3.org/2000/svg" xmlns:xlink="http://www.w3.org/1999/xlink" width="400" height="379.40797940797944" viewBox="0, 0, 400,379.40797940797944">
<g id="svgg">
<path id="path0" d="M125.996 142.751 C 99.395 144.030,73.229 156.291,58.488 174.383 C 38.459 198.966,44.833 235.231,70.605 243.324 C 74.373 244.507,84.446 244.552,88.400 243.404 L 90.842 242.694 91.296 240.038 C 93.456 227.401,100.812 218.450,111.954 214.901 C 115.774 213.685,125.875 213.382,129.717 214.369 C 132.324 215.039,132.233 215.086,127.045 215.729 C 101.948 218.843,91.212 242.535,105.699 262.837 C 113.410 273.643,130.415 278.934,145.476 275.211 C 149.876 274.124,149.596 274.040,150.642 276.755 C 156.750 292.617,168.104 305.096,182.960 312.274 C 213.726 327.141,250.511 315.018,260.566 286.698 L 260.977 285.540 264.170 285.835 C 278.910 287.193,295.191 285.516,305.503 281.579 C 306.651 281.141,308.188 280.561,308.918 280.290 C 314.424 278.247,323.261 272.314,328.937 266.850 C 331.328 264.549,331.868 263.809,330.645 264.511 C 328.283 265.867,316.865 269.963,311.954 271.216 C 276.522 280.258,241.542 274.361,216.888 255.188 C 216.053 254.539,215.171 253.895,214.928 253.757 C 214.660 253.604,213.697 254.591,212.485 256.259 C 204.658 267.033,202.241 266.966,188.569 255.598 C 185.808 253.302,181.828 250.003,179.725 248.267 C 168.597 239.080,166.419 237.285,165.132 236.243 C 164.359 235.617,161.770 233.476,159.378 231.486 C 156.986 229.496,154.089 227.115,152.941 226.195 C 147.765 222.045,147.096 219.336,150.511 216.338 C 153.434 213.771,154.206 214.104,164.783 222.497 C 169.855 226.521,175.712 231.165,177.799 232.818 C 179.886 234.471,181.679 235.926,181.784 236.051 C 181.888 236.176,183.031 237.084,184.324 238.069 C 185.617 239.054,186.913 240.098,187.205 240.390 C 190.859 244.044,195.424 242.618,195.441 237.818 C 195.448 235.729,196.811 236.878,167.794 214.502 C 160.745 209.066,160.118 208.140,161.512 205.217 C 162.354 203.450,164.207 202.277,166.154 202.277 C 167.892 202.277,168.974 203.107,195.667 224.894 C 201.146 229.366,202.625 229.956,204.938 228.590 C 206.210 227.838,206.831 226.619,206.831 224.871 C 206.831 222.859,206.613 222.581,202.139 218.882 C 199.814 216.960,197.486 215.022,196.964 214.574 C 195.166 213.032,185.536 205.083,178.150 199.044 C 172.705 194.593,171.970 191.200,175.987 189.050 C 178.407 187.755,178.166 187.620,191.461 197.719 C 201.311 205.201,202.995 206.098,203.601 204.189 C 203.949 203.092,203.324 202.206,200.923 200.394 C 191.884 193.569,188.575 184.215,191.431 173.561 L 192.160 170.841 190.498 168.248 C 185.873 161.032,175.314 152.648,166.224 148.971 C 164.867 148.423,163.416 147.812,162.998 147.614 C 155.804 144.207,139.712 142.092,125.996 142.751 " stroke="none" fill="#042344" fill-rule="evenodd">
</path>
<path id="path1" d="M200.775 85.423 C 181.978 87.854,167.510 96.933,159.101 111.575 L 157.248 114.801 155.190 115.092 C 143.216 116.785,136.647 118.116,128.463 120.507 C 114.639 124.545,99.437 131.611,87.287 139.646 C 80.381 144.212,73.873 149.231,78.653 146.304 C 80.350 145.264,89.773 140.545,91.676 139.781 C 92.288 139.535,93.814 138.913,95.066 138.398 C 132.560 122.982,171.826 130.446,203.065 158.929 L 204.845 160.552 206.502 159.998 C 217.830 156.212,232.993 159.053,243.280 166.890 C 257.512 177.731,264.594 197.605,258.712 210.199 C 253.380 221.616,239.714 224.015,221.604 216.712 C 216.481 214.646,215.759 214.493,215.411 215.401 C 215.084 216.254,215.864 217.203,218.228 218.829 C 219.360 219.608,220.461 220.395,220.675 220.578 C 220.888 220.761,222.528 221.970,224.320 223.264 C 231.909 228.746,232.146 231.754,225.578 239.240 L 222.615 242.617 223.926 243.730 C 229.964 248.858,242.041 254.976,251.803 257.852 C 253.681 258.405,255.731 259.015,256.357 259.208 C 280.302 266.578,316.042 262.562,336.888 250.158 C 373.823 228.180,375.776 179.480,340.228 166.847 C 336.128 165.390,329.698 164.270,326.186 164.402 L 323.150 164.516 322.898 167.362 C 321.381 184.476,309.389 195.553,290.647 197.153 C 286.744 197.486,286.572 196.893,290.229 195.703 C 306.351 190.457,315.100 179.092,315.114 163.378 C 315.136 139.301,294.252 121.834,272.408 127.659 C 270.382 128.200,268.519 128.687,268.269 128.742 C 268.007 128.800,267.220 127.306,266.422 125.237 C 259.259 106.675,244.941 93.282,226.495 87.893 C 224.759 87.387,223.083 86.874,222.770 86.754 C 219.521 85.514,206.271 84.712,200.775 85.423 " stroke="none" fill="#63abdc" fill-rule="evenodd">
</path>
<path id="path2" d="M0.000 189.753 L 0.000 379.507 200.000 379.507 L 400.000 379.507 400.000 189.753 L 400.000 0.000 200.000 0.000 L 0.000 0.000 0.000 189.753 M212.874 85.014 C 237.468 86.926,258.034 102.134,266.573 124.722 C 268.109 128.785,268.437 129.034,270.542 127.732 C 273.610 125.837,288.093 125.954,291.813 127.905 C 292.141 128.077,293.589 128.746,295.030 129.391 C 301.711 132.384,308.137 138.991,311.660 146.490 C 321.379 167.177,312.888 188.212,291.821 195.636 L 288.994 196.632 292.600 196.429 C 308.369 195.543,320.315 184.301,322.422 168.364 C 323.088 163.326,322.935 163.566,325.343 163.791 C 341.563 165.307,350.439 169.371,357.842 178.671 C 376.451 202.050,363.058 238.745,330.361 253.963 C 297.989 269.029,252.897 265.348,225.522 245.404 C 221.746 242.653,221.763 243.048,225.243 239.089 C 232.242 231.127,231.750 229.059,221.000 221.283 C 215.636 217.402,215.370 217.148,215.370 215.910 C 215.370 214.251,216.228 214.076,218.809 215.211 C 243.675 226.142,260.097 220.022,260.132 199.810 C 260.178 173.169,232.225 152.623,206.476 160.372 L 204.769 160.886 202.669 158.988 C 171.626 130.922,133.389 123.598,95.820 138.522 C 89.468 141.045,85.118 143.125,79.395 146.374 C 73.257 149.859,72.908 149.792,77.717 146.054 C 99.355 129.236,124.845 118.797,153.628 114.965 L 157.162 114.494 158.142 112.560 C 165.750 97.547,183.348 86.475,201.874 85.046 C 207.553 84.608,207.652 84.608,212.874 85.014 M143.420 142.701 C 163.629 145.089,179.120 152.798,188.780 165.275 C 192.512 170.096,192.830 170.782,192.191 172.638 C 188.662 182.879,192.514 194.287,201.527 200.292 C 205.407 202.878,204.653 206.920,200.670 204.888 C 199.543 204.313,191.897 198.730,189.184 196.501 C 188.701 196.104,183.086 191.851,180.902 190.228 C 177.714 187.858,174.194 189.255,174.194 192.890 C 174.194 194.957,174.747 195.716,178.437 198.709 C 179.956 199.941,184.798 203.937,189.198 207.590 C 193.598 211.243,199.163 215.854,201.564 217.837 C 203.965 219.820,206.245 221.851,206.630 222.352 C 208.336 224.569,206.842 228.826,204.149 229.417 C 201.204 230.064,202.058 230.656,179.507 212.333 C 175.228 208.857,170.899 205.342,169.888 204.522 C 165.603 201.051,161.244 203.010,161.611 208.242 C 161.675 209.165,164.198 211.265,177.233 221.252 C 181.456 224.488,185.110 227.324,185.354 227.555 C 185.597 227.787,187.669 229.391,189.957 231.121 C 192.245 232.850,194.492 234.682,194.948 235.191 C 198.325 238.955,193.803 244.605,189.284 242.269 C 188.363 241.792,177.083 233.052,174.681 230.953 C 173.599 230.007,172.917 229.467,170.538 227.666 C 169.155 226.619,167.816 225.559,167.563 225.310 C 167.310 225.061,166.533 224.431,165.837 223.909 C 165.140 223.387,164.046 222.533,163.405 222.012 C 162.764 221.490,162.017 220.892,161.746 220.683 C 161.476 220.475,160.963 220.034,160.608 219.705 C 160.253 219.376,159.279 218.607,158.444 217.997 C 157.609 217.387,156.707 216.681,156.439 216.429 C 154.337 214.443,150.234 215.905,149.131 219.031 C 148.236 221.568,148.905 222.375,158.100 229.860 C 161.401 232.547,165.449 235.896,168.499 238.463 C 170.271 239.955,173.431 242.577,175.519 244.289 C 177.608 246.001,181.195 248.960,183.491 250.866 C 202.626 266.747,203.782 267.010,211.195 257.172 C 214.649 252.590,214.400 252.722,216.469 254.376 C 236.295 270.229,270.205 278.510,296.690 273.968 C 297.884 273.763,300.228 273.359,301.898 273.071 C 306.367 272.300,313.532 270.452,318.406 268.813 C 319.972 268.287,323.610 266.916,326.492 265.765 C 332.482 263.375,332.939 263.411,330.338 266.071 C 314.859 281.898,293.737 288.498,265.209 286.423 C 261.207 286.131,261.155 286.138,260.891 286.992 C 256.537 301.084,243.523 312.153,224.858 317.640 C 219.040 319.350,202.148 319.361,196.810 317.658 C 196.164 317.452,194.035 316.834,192.080 316.285 C 174.694 311.404,158.597 296.922,151.412 279.696 C 149.036 274.000,149.956 274.574,145.161 275.794 C 138.643 277.454,126.332 276.639,119.951 274.127 C 98.444 265.659,91.746 238.407,107.540 223.632 C 109.664 221.646,114.748 218.216,115.569 218.216 C 115.709 218.216,116.363 217.976,117.020 217.683 C 119.552 216.553,123.919 215.508,127.072 215.278 C 131.001 214.991,129.967 214.619,124.099 214.207 C 107.324 213.030,94.153 223.541,91.824 239.963 C 91.351 243.300,91.614 243.061,87.385 244.002 C 58.890 250.340,38.564 221.907,49.012 190.323 C 52.853 178.710,65.131 164.246,76.567 157.862 C 77.140 157.542,78.309 156.831,79.165 156.281 C 83.675 153.382,94.166 148.780,100.569 146.892 C 102.135 146.430,103.928 145.886,104.554 145.682 C 105.180 145.478,107.315 144.966,109.298 144.545 C 112.547 143.855,114.705 143.526,123.529 142.378 C 128.283 141.760,136.590 141.895,143.420 142.701 " stroke="none" fill="#fbfbfb" fill-rule="evenodd">
</path>
<path id="path3" d="M206.743 84.905 C 207.425 84.989,208.450 84.988,209.020 84.901 C 209.590 84.815,209.032 84.745,207.780 84.748 C 206.528 84.750,206.061 84.821,206.743 84.905 M200.664 85.277 C 201.134 85.368,201.902 85.368,202.372 85.277 C 202.842 85.187,202.457 85.113,201.518 85.113 C 200.579 85.113,200.194 85.187,200.664 85.277 M215.560 85.573 C 219.188 86.183,220.946 86.276,219.257 85.768 C 218.682 85.595,216.889 85.358,215.273 85.242 L 212.334 85.031 215.560 85.573 M194.307 86.129 C 190.247 87.087,188.137 87.694,188.300 87.857 C 188.378 87.935,189.760 87.656,191.371 87.238 C 192.982 86.820,195.540 86.251,197.055 85.975 C 198.764 85.662,199.306 85.469,198.482 85.464 C 197.751 85.461,195.873 85.760,194.307 86.129 M223.340 86.885 C 224.555 87.425,230.512 89.159,230.657 89.015 C 230.819 88.852,225.282 87.053,223.719 86.761 C 222.854 86.599,222.763 86.629,223.340 86.885 M183.585 89.541 C 178.497 91.770,170.439 96.757,170.410 97.694 C 170.403 97.887,170.783 97.690,171.252 97.257 C 173.055 95.593,179.409 91.802,182.890 90.313 C 184.890 89.457,186.869 88.608,187.287 88.427 C 187.773 88.215,187.841 88.095,187.476 88.091 C 187.163 88.088,185.412 88.741,183.585 89.541 M231.879 89.692 C 232.400 89.987,233.254 90.341,233.776 90.479 L 234.725 90.730 233.776 90.194 C 233.254 89.899,232.400 89.545,231.879 89.407 L 230.930 89.156 231.879 89.692 M234.915 90.853 C 234.915 90.973,235.964 91.600,237.247 92.248 C 243.843 95.578,251.014 101.213,255.518 106.607 C 256.101 107.304,256.677 107.776,256.799 107.654 C 257.195 107.258,248.857 99.303,245.541 96.912 C 242.473 94.700,234.915 90.390,234.915 90.853 M166.176 101.619 C 162.540 105.408,160.535 108.114,158.378 112.144 L 157.159 114.421 154.766 114.877 L 152.372 115.332 154.649 115.124 C 157.481 114.864,157.149 115.117,158.939 111.858 C 161.049 108.018,163.557 104.698,167.110 101.044 C 168.784 99.322,170.059 97.913,169.943 97.913 C 169.827 97.913,168.132 99.581,166.176 101.619 M259.599 111.860 C 260.461 113.164,261.247 114.231,261.345 114.231 C 261.652 114.231,260.200 111.951,259.091 110.692 C 258.394 109.901,258.568 110.301,259.599 111.860 M261.653 114.991 C 262.146 116.279,265.632 122.741,265.643 122.388 C 265.657 121.917,262.327 115.327,261.809 114.801 C 261.562 114.550,261.509 114.614,261.653 114.991 M146.937 115.835 C 145.618 116.037,144.627 116.290,144.734 116.398 C 144.949 116.612,151.423 115.763,151.423 115.521 C 151.423 115.296,149.634 115.421,146.937 115.835 M140.119 117.169 C 138.597 117.486,137.430 117.823,137.525 117.917 C 137.704 118.096,143.901 116.923,144.181 116.658 C 144.464 116.390,142.940 116.582,140.119 117.169 M132.638 118.982 L 131.120 119.499 132.638 119.278 C 133.472 119.157,134.497 118.921,134.915 118.756 L 135.674 118.454 134.915 118.459 C 134.497 118.462,133.472 118.697,132.638 118.982 M127.324 120.495 L 126.186 121.031 127.324 120.801 C 127.951 120.674,128.805 120.436,129.222 120.271 L 129.981 119.972 129.222 119.965 C 128.805 119.961,127.951 120.200,127.324 120.495 M121.822 122.231 C 117.453 123.736,110.751 126.437,110.933 126.620 C 111.015 126.701,113.199 125.934,115.787 124.915 C 118.376 123.896,121.646 122.684,123.055 122.221 C 124.464 121.759,125.617 121.309,125.617 121.221 C 125.617 120.958,125.182 121.073,121.822 122.231 M265.655 123.105 C 265.655 123.469,267.636 128.490,267.864 128.705 C 268.006 128.837,268.463 128.791,268.880 128.602 C 269.601 128.275,269.598 128.265,268.820 128.411 C 268.107 128.544,267.868 128.199,266.979 125.762 C 266.113 123.386,265.655 122.468,265.655 123.105 M277.419 126.344 C 276.477 126.474,278.093 126.578,281.025 126.578 C 284.496 126.577,285.680 126.487,284.440 126.320 C 282.186 126.014,279.763 126.023,277.419 126.344 M106.693 128.326 C 105.365 128.946,104.366 129.540,104.473 129.647 C 104.579 129.753,105.837 129.240,107.267 128.506 C 110.424 126.887,110.039 126.766,106.693 128.326 M270.778 127.690 C 269.274 128.379,269.970 128.397,272.106 127.724 C 273.308 127.345,273.533 127.183,272.865 127.177 C 272.343 127.173,271.404 127.404,270.778 127.690 M289.943 127.693 C 291.959 128.364,292.107 128.384,291.632 127.923 C 291.434 127.731,290.588 127.472,289.753 127.349 L 288.235 127.125 289.943 127.693 M294.388 129.388 C 299.820 131.955,305.246 136.681,308.496 141.676 C 309.412 143.084,310.238 144.158,310.333 144.063 C 310.638 143.758,307.430 139.338,305.074 136.820 C 301.547 133.049,296.074 129.290,292.979 128.513 C 292.457 128.382,293.091 128.776,294.388 129.388 M102.372 130.388 C 101.798 130.699,101.328 131.025,101.328 131.112 C 101.328 131.384,103.596 130.493,103.818 130.133 C 104.123 129.640,103.571 129.737,102.372 130.388 M126.565 130.899 C 125.313 131.020,128.729 131.120,134.156 131.120 C 139.583 131.120,142.998 131.010,141.746 130.876 C 138.981 130.581,129.703 130.594,126.565 130.899 M98.362 132.528 C 97.252 133.151,96.423 133.741,96.521 133.839 C 96.702 134.020,100.949 131.741,100.949 131.463 C 100.949 131.163,100.355 131.408,98.362 132.528 M122.111 131.578 C 122.583 131.668,123.266 131.665,123.629 131.570 C 123.992 131.475,123.605 131.401,122.770 131.405 C 121.935 131.409,121.639 131.487,122.111 131.578 M148.735 132.072 C 151.327 132.487,153.510 132.765,153.586 132.689 C 153.818 132.457,149.491 131.720,146.679 131.513 C 144.762 131.372,145.334 131.527,148.735 132.072 M117.457 132.068 C 115.782 132.495,117.690 132.513,119.734 132.090 L 121.252 131.776 119.924 131.777 C 119.194 131.778,118.083 131.909,117.457 132.068 M110.248 133.498 C 108.996 133.825,108.143 134.147,108.351 134.213 C 108.559 134.279,110.009 134.013,111.575 133.622 C 113.140 133.231,113.994 132.909,113.472 132.907 C 112.951 132.904,111.500 133.171,110.248 133.498 M155.787 133.399 C 156.831 133.703,157.941 133.944,158.254 133.934 C 159.237 133.906,157.427 133.320,155.598 133.075 L 153.890 132.846 155.787 133.399 M91.635 136.480 C 89.348 137.863,87.220 139.259,86.907 139.583 C 86.521 139.983,86.703 139.945,87.476 139.463 C 88.102 139.072,90.280 137.744,92.315 136.512 C 95.526 134.568,96.374 133.966,95.905 133.966 C 95.844 133.966,93.923 135.097,91.635 136.480 M105.578 134.720 C 104.890 134.883,104.206 135.142,104.060 135.294 C 103.765 135.604,106.028 135.177,107.211 134.700 C 108.171 134.312,107.251 134.324,105.578 134.720 M161.480 134.861 C 162.106 135.146,163.131 135.482,163.757 135.606 L 164.896 135.832 163.715 135.299 C 163.066 135.006,162.041 134.670,161.438 134.554 L 160.342 134.341 161.480 134.861 M100.380 136.419 C 99.753 136.706,99.497 136.946,99.810 136.954 C 100.123 136.961,100.892 136.733,101.518 136.446 C 102.144 136.160,102.400 135.919,102.087 135.911 C 101.774 135.904,101.006 136.132,100.380 136.419 M165.085 136.001 C 165.085 136.077,166.580 136.680,168.406 137.340 C 170.232 138.001,173.605 139.461,175.901 140.585 C 178.197 141.709,180.136 142.568,180.210 142.495 C 180.434 142.275,174.387 139.344,170.008 137.550 C 166.210 135.994,165.085 135.641,165.085 136.001 M95.825 138.088 C 94.364 138.674,92.846 139.271,92.450 139.415 C 92.055 139.559,91.812 139.756,91.910 139.854 C 92.070 140.015,98.641 137.520,99.020 137.154 C 99.415 136.773,98.271 137.108,95.825 138.088 M83.567 141.721 C 80.129 144.076,73.996 148.886,74.187 149.077 C 74.276 149.166,76.632 147.941,79.423 146.354 C 82.213 144.768,85.309 143.111,86.302 142.671 C 87.296 142.232,88.024 141.788,87.922 141.685 C 87.720 141.483,81.575 144.530,79.186 146.016 C 75.047 148.591,78.628 145.548,84.174 141.777 C 85.550 140.842,86.505 139.979,86.076 140.060 C 86.011 140.072,84.882 140.820,83.567 141.721 M89.601 140.628 C 88.891 140.936,88.395 141.273,88.499 141.377 C 88.709 141.587,91.461 140.515,91.461 140.223 C 91.461 139.925,90.977 140.031,89.601 140.628 M129.146 142.218 C 130.982 142.288,133.886 142.288,135.597 142.218 C 137.309 142.147,135.806 142.090,132.258 142.091 C 128.710 142.091,127.309 142.149,129.146 142.218 M123.435 142.577 C 123.800 142.672,124.398 142.672,124.763 142.577 C 125.128 142.481,124.829 142.403,124.099 142.403 C 123.368 142.403,123.069 142.481,123.435 142.577 M139.753 142.577 C 140.119 142.672,140.716 142.672,141.082 142.577 C 141.447 142.481,141.148 142.403,140.417 142.403 C 139.687 142.403,139.388 142.481,139.753 142.577 M180.645 142.838 C 180.645 142.928,181.627 143.555,182.827 144.232 C 186.328 146.205,191.567 149.797,195.351 152.819 C 197.282 154.361,198.861 155.507,198.861 155.367 C 198.861 155.040,198.682 154.895,193.516 151.023 C 188.053 146.929,180.645 142.218,180.645 142.838 M311.080 145.916 C 311.427 146.643,311.778 147.172,311.861 147.089 C 312.034 146.916,310.882 144.592,310.623 144.592 C 310.527 144.592,310.733 145.188,311.080 145.916 M105.693 145.351 C 104.726 145.767,105.723 145.767,107.021 145.351 C 107.784 145.107,107.821 145.045,107.211 145.036 C 106.793 145.030,106.110 145.172,105.693 145.351 M311.981 147.818 C 311.981 148.027,312.225 148.624,312.524 149.146 C 312.822 149.668,313.066 149.924,313.066 149.715 C 313.066 149.507,312.822 148.909,312.524 148.387 C 312.225 147.865,311.981 147.609,311.981 147.818 M313.695 152.562 C 314.089 154.609,314.672 155.719,314.394 153.890 C 314.266 153.055,314.000 152.116,313.801 151.803 C 313.555 151.416,313.521 151.659,313.695 152.562 M200.380 156.887 C 202.735 159.529,204.810 160.935,205.748 160.525 C 206.629 160.140,206.627 160.137,205.651 160.327 C 204.956 160.462,204.447 160.282,203.943 159.724 C 203.549 159.287,202.372 158.230,201.328 157.376 C 200.063 156.340,199.747 156.177,200.380 156.887 M315.172 163.372 C 315.170 166.904,315.281 168.807,315.437 167.926 C 315.776 166.020,315.774 161.254,315.434 159.013 C 315.281 158.003,315.174 159.784,315.172 163.372 M181.784 157.979 C 181.784 158.037,183.107 159.360,184.725 160.920 L 187.666 163.757 184.829 160.816 C 182.194 158.084,181.784 157.702,181.784 157.979 M216.793 158.531 C 217.576 158.613,218.857 158.613,219.639 158.531 C 220.422 158.449,219.782 158.382,218.216 158.382 C 216.651 158.382,216.010 158.449,216.793 158.531 M209.584 159.175 C 208.281 159.432,207.085 159.777,206.928 159.941 C 206.770 160.106,207.239 160.112,207.970 159.955 C 208.700 159.798,210.493 159.452,211.954 159.186 C 213.580 158.890,214.096 158.703,213.283 158.705 C 212.552 158.707,210.888 158.918,209.584 159.175 M222.106 158.895 C 222.472 158.991,223.069 158.991,223.435 158.895 C 223.800 158.800,223.501 158.722,222.770 158.722 C 222.040 158.722,221.741 158.800,222.106 158.895 M227.907 159.937 C 229.794 160.425,232.576 161.351,234.091 161.996 C 235.605 162.640,236.749 163.013,236.632 162.823 C 236.129 162.010,227.061 158.988,225.252 159.032 C 224.827 159.042,226.021 159.450,227.907 159.937 M239.053 164.434 C 244.386 167.608,249.702 172.720,253.226 178.062 C 254.296 179.683,255.237 180.942,255.319 180.860 C 255.778 180.402,250.647 173.674,247.048 170.014 C 244.867 167.797,238.331 163.173,237.417 163.201 C 237.189 163.208,237.925 163.763,239.053 164.434 M323.155 163.939 C 322.781 164.544,322.761 164.542,326.376 164.302 C 329.296 164.109,329.386 164.081,327.324 164.012 C 326.072 163.971,324.682 163.839,324.236 163.719 C 323.790 163.599,323.304 163.698,323.155 163.939 M330.550 164.426 C 330.803 164.699,337.426 165.927,337.616 165.736 C 337.786 165.566,334.614 164.842,332.068 164.470 C 331.129 164.333,330.446 164.313,330.550 164.426 M62.991 168.786 L 59.393 172.486 63.093 168.888 C 66.530 165.546,66.966 165.085,66.691 165.085 C 66.634 165.085,64.969 166.750,62.991 168.786 M322.467 168.082 C 322.312 169.626,322.260 170.964,322.352 171.055 C 322.603 171.306,323.051 167.252,322.889 166.197 C 322.812 165.690,322.621 166.538,322.467 168.082 M339.089 166.382 C 339.715 166.661,340.655 167.002,341.176 167.140 L 342.125 167.390 341.176 166.860 C 340.655 166.568,339.715 166.227,339.089 166.102 L 337.951 165.876 339.089 166.382 M344.752 168.672 C 346.197 169.411,347.452 169.942,347.541 169.853 C 347.744 169.650,344.356 167.930,343.074 167.585 C 342.552 167.444,343.307 167.934,344.752 168.672 M314.262 171.939 C 313.001 177.821,305.823 188.498,302.401 189.584 C 302.020 189.705,301.708 189.975,301.708 190.184 C 301.708 190.760,303.902 189.077,306.374 186.605 C 310.279 182.700,313.944 176.082,314.771 171.442 C 315.149 169.320,314.738 169.722,314.262 171.939 M348.197 170.305 C 348.406 170.521,349.772 171.573,351.233 172.643 C 353.818 174.536,353.842 174.545,352.110 172.968 C 350.552 171.549,347.191 169.261,348.197 170.305 M321.096 174.610 C 320.839 175.468,320.527 176.436,320.402 176.762 C 320.264 177.120,320.332 177.257,320.572 177.109 C 320.982 176.855,321.970 173.456,321.710 173.196 C 321.629 173.116,321.353 173.752,321.096 174.610 M354.080 174.755 C 354.080 174.906,354.838 175.823,355.765 176.794 C 357.873 179.001,359.416 181.131,361.104 184.163 C 361.828 185.463,362.422 186.354,362.424 186.142 C 362.427 185.930,361.736 184.571,360.889 183.122 C 358.868 179.662,354.080 173.779,354.080 174.755 M190.980 177.609 C 190.980 178.340,191.058 178.639,191.153 178.273 C 191.249 177.908,191.249 177.310,191.153 176.945 C 191.058 176.580,190.980 176.879,190.980 177.609 M319.924 177.865 C 319.924 178.075,319.087 179.640,318.063 181.344 C 317.039 183.047,316.314 184.434,316.450 184.426 C 317.042 184.393,320.511 178.069,320.140 177.699 C 320.021 177.580,319.924 177.655,319.924 177.865 M190.630 181.214 C 190.632 182.467,190.703 182.933,190.787 182.251 C 190.872 181.569,190.870 180.544,190.784 179.974 C 190.697 179.404,190.628 179.962,190.630 181.214 M256.051 182.728 C 256.399 183.456,256.750 183.984,256.832 183.901 C 257.006 183.728,255.854 181.404,255.594 181.404 C 255.498 181.404,255.704 182.000,256.051 182.728 M256.939 184.649 C 256.947 184.847,257.210 185.436,257.525 185.958 L 258.096 186.907 257.848 185.958 C 257.589 184.968,256.915 183.997,256.939 184.649 M314.027 186.751 C 310.221 190.655,305.651 193.380,300.000 195.114 C 298.121 195.690,296.852 196.172,297.180 196.183 C 301.206 196.329,311.517 190.604,314.973 186.303 C 316.587 184.294,316.282 184.439,314.027 186.751 M362.429 186.817 C 362.429 186.955,362.777 187.953,363.203 189.033 C 363.629 190.114,364.173 191.871,364.413 192.937 C 364.652 194.004,364.914 194.575,364.996 194.206 C 365.153 193.495,363.324 187.536,362.761 186.926 C 362.578 186.728,362.429 186.679,362.429 186.817 M258.706 189.184 C 258.833 189.810,259.071 190.664,259.235 191.082 L 259.534 191.841 259.541 191.082 C 259.545 190.664,259.307 189.810,259.012 189.184 L 258.475 188.046 258.706 189.184 M299.129 191.718 C 298.024 192.358,297.187 192.949,297.269 193.031 C 297.461 193.224,300.874 191.320,301.157 190.861 C 301.454 190.381,301.400 190.404,299.129 191.718 M173.910 192.979 C 173.914 193.814,173.992 194.111,174.082 193.639 C 174.173 193.167,174.170 192.484,174.075 192.121 C 173.980 191.758,173.906 192.144,173.910 192.979 M294.877 193.973 C 293.937 194.406,292.315 195.024,291.271 195.346 C 290.228 195.668,289.570 196.002,289.811 196.087 C 290.337 196.275,296.288 194.027,296.600 193.524 C 296.891 193.052,296.852 193.062,294.877 193.973 M260.152 199.861 C 260.152 203.149,260.260 205.337,260.392 204.722 C 260.708 203.248,260.713 195.876,260.399 194.759 C 260.263 194.277,260.152 196.573,260.152 199.861 M196.964 196.774 C 197.672 197.505,198.337 198.102,198.441 198.102 C 198.545 198.102,198.052 197.505,197.343 196.774 C 196.635 196.044,195.971 195.446,195.866 195.446 C 195.762 195.446,196.256 196.044,196.964 196.774 M287.548 196.659 C 286.619 197.230,288.434 197.370,292.018 197.003 C 294.056 196.795,295.779 196.568,295.848 196.499 C 296.100 196.246,287.963 196.403,287.548 196.659 M190.512 197.482 C 190.512 197.586,191.025 198.036,191.651 198.482 C 192.277 198.928,192.789 199.207,192.789 199.103 C 192.789 198.999,192.277 198.548,191.651 198.102 C 191.025 197.657,190.512 197.377,190.512 197.482 M365.650 203.605 C 365.649 209.210,365.675 209.434,365.978 206.511 C 366.163 204.730,366.163 202.075,365.979 200.439 C 365.687 197.853,365.651 198.202,365.650 203.605 M164.706 202.662 C 164.305 202.924,164.530 202.963,165.465 202.791 C 167.102 202.491,167.410 202.275,166.192 202.283 C 165.688 202.286,165.019 202.457,164.706 202.662 M203.847 203.492 C 203.818 204.055,203.496 204.690,203.131 204.903 C 202.766 205.116,202.659 205.295,202.895 205.302 C 203.613 205.321,204.242 204.267,204.066 203.342 C 203.915 202.552,203.893 202.567,203.847 203.492 M258.808 208.988 C 258.106 211.150,255.951 214.215,253.754 216.175 C 252.681 217.133,252.144 217.744,252.562 217.534 C 255.071 216.269,260.429 208.689,259.482 207.742 C 259.370 207.631,259.067 208.191,258.808 208.988 M46.388 210.626 C 46.388 211.357,46.466 211.656,46.561 211.290 C 46.657 210.925,46.657 210.327,46.561 209.962 C 46.466 209.597,46.388 209.896,46.388 210.626 M364.395 214.215 C 364.148 215.442,364.013 216.511,364.094 216.592 C 364.329 216.827,365.172 212.974,364.999 212.455 C 364.913 212.197,364.641 212.989,364.395 214.215 M120.209 213.937 C 120.887 214.021,121.997 214.021,122.676 213.937 C 123.354 213.853,122.799 213.784,121.442 213.784 C 120.085 213.784,119.530 213.853,120.209 213.937 M116.603 214.303 C 116.969 214.399,117.566 214.399,117.932 214.303 C 118.297 214.208,117.998 214.130,117.268 214.130 C 116.537 214.130,116.238 214.208,116.603 214.303 M125.332 214.303 C 125.697 214.399,126.295 214.399,126.660 214.303 C 127.026 214.208,126.727 214.130,125.996 214.130 C 125.266 214.130,124.967 214.208,125.332 214.303 M215.354 214.826 C 215.217 215.049,215.207 215.333,215.332 215.459 C 215.457 215.584,215.560 215.487,215.560 215.244 C 215.560 214.577,216.773 214.709,218.769 215.591 C 219.752 216.026,220.632 216.307,220.724 216.215 C 220.961 215.977,217.116 214.421,216.291 214.421 C 215.913 214.421,215.492 214.603,215.354 214.826 M122.391 215.939 C 121.424 216.355,122.422 216.355,123.719 215.939 C 124.482 215.695,124.519 215.633,123.909 215.624 C 123.491 215.618,122.808 215.760,122.391 215.939 M215.189 216.591 C 215.184 216.846,216.162 217.769,217.362 218.642 C 218.563 219.516,219.758 220.396,220.019 220.598 C 220.280 220.800,220.489 220.817,220.484 220.635 C 220.478 220.453,219.582 219.715,218.491 218.996 C 217.401 218.277,216.213 217.338,215.853 216.909 C 215.492 216.480,215.193 216.337,215.189 216.591 M222.391 217.043 C 222.704 217.221,223.387 217.479,223.909 217.617 L 224.858 217.868 223.909 217.297 C 223.387 216.982,222.704 216.724,222.391 216.723 C 221.885 216.722,221.885 216.757,222.391 217.043 M363.079 219.057 C 362.734 220.137,362.514 221.085,362.591 221.162 C 362.668 221.239,363.022 220.426,363.378 219.355 C 363.733 218.284,363.953 217.337,363.866 217.250 C 363.779 217.163,363.425 217.976,363.079 219.057 M225.996 218.377 C 226.622 218.657,227.732 218.991,228.463 219.119 L 229.791 219.353 228.463 218.844 C 227.732 218.563,226.622 218.229,225.996 218.101 L 224.858 217.868 225.996 218.377 M250.095 218.596 C 249.364 218.996,248.903 219.330,249.070 219.339 C 249.472 219.360,251.613 218.247,251.613 218.017 C 251.613 217.768,251.591 217.777,250.095 218.596 M230.642 219.745 C 231.109 219.933,232.390 220.175,233.488 220.282 L 235.484 220.477 233.207 219.932 C 230.653 219.322,229.353 219.227,230.642 219.745 M246.300 219.954 L 244.592 220.478 246.110 220.261 C 246.945 220.142,247.884 219.895,248.197 219.711 C 248.986 219.249,248.315 219.335,246.300 219.954 M99.986 222.486 L 98.102 224.478 100.095 222.595 C 101.191 221.559,102.087 220.663,102.087 220.603 C 102.087 220.319,101.736 220.634,99.986 222.486 M238.059 220.774 C 239.267 220.850,241.146 220.849,242.234 220.773 C 243.322 220.696,242.334 220.634,240.038 220.635 C 237.742 220.636,236.852 220.699,238.059 220.774 M220.990 221.097 C 221.159 221.287,222.778 222.552,224.588 223.909 C 231.296 228.937,231.430 232.050,225.243 239.089 C 223.684 240.863,222.404 242.497,222.399 242.719 C 222.378 243.721,235.700 252.272,239.164 253.480 C 240.985 254.115,240.299 253.665,236.390 251.665 C 232.631 249.741,226.132 245.604,223.926 243.730 L 222.615 242.617 225.578 239.240 C 230.756 233.338,231.487 229.613,228.138 226.189 C 227.029 225.056,220.159 220.161,220.990 221.097 M148.778 221.516 C 148.772 221.765,149.151 222.371,149.620 222.863 C 150.090 223.354,150.285 223.492,150.053 223.169 C 149.821 222.845,149.442 222.239,149.211 221.822 C 148.979 221.404,148.784 221.267,148.778 221.516 M162.945 221.545 C 163.245 222.031,165.465 223.674,165.465 223.411 C 165.465 223.317,164.838 222.762,164.072 222.177 C 163.305 221.593,162.798 221.308,162.945 221.545 M361.532 223.012 C 361.172 223.766,360.969 224.473,361.079 224.583 C 361.190 224.694,361.549 224.142,361.877 223.357 C 362.652 221.502,362.381 221.232,361.532 223.012 M105.289 225.901 L 104.175 227.135 105.408 226.020 C 106.558 224.981,106.816 224.668,106.523 224.668 C 106.457 224.668,105.902 225.223,105.289 225.901 M359.412 227.286 C 358.769 228.560,358.319 229.602,358.411 229.602 C 358.727 229.602,360.992 225.382,360.787 225.176 C 360.674 225.063,360.055 226.013,359.412 227.286 M356.333 232.353 C 352.321 238.269,346.143 244.280,340.068 248.178 C 337.862 249.594,337.446 250.200,339.521 248.976 C 345.833 245.252,354.480 236.597,358.025 230.455 C 358.830 229.061,357.725 230.300,356.333 232.353 M59.286 237.773 C 59.854 238.371,60.387 238.783,60.470 238.690 C 60.553 238.596,60.089 238.108,59.438 237.604 L 58.254 236.688 59.286 237.773 M98.789 243.833 C 98.791 245.085,98.862 245.552,98.947 244.870 C 99.031 244.188,99.029 243.163,98.943 242.593 C 98.856 242.023,98.787 242.581,98.789 243.833 M191.651 242.505 L 189.943 242.770 191.534 242.827 C 192.408 242.859,193.230 242.713,193.359 242.505 C 193.488 242.296,193.540 242.151,193.476 242.182 C 193.411 242.214,192.590 242.359,191.651 242.505 M335.765 250.814 C 333.700 252.025,333.080 252.538,334.167 252.135 C 335.129 251.779,337.761 250.142,337.761 249.900 C 337.761 249.641,337.772 249.636,335.765 250.814 M331.689 252.939 C 331.167 253.236,328.994 254.202,326.860 255.086 C 324.726 255.969,323.044 256.757,323.124 256.836 C 323.203 256.916,324.541 256.470,326.099 255.847 C 329.225 254.595,333.613 252.411,333.017 252.404 C 332.808 252.401,332.211 252.642,331.689 252.939 M242.431 254.872 C 244.818 255.962,251.878 258.452,252.504 258.425 C 252.744 258.414,250.892 257.665,248.387 256.759 C 245.882 255.853,243.198 254.837,242.422 254.501 C 240.190 253.535,240.198 253.852,242.431 254.872 M320.493 257.482 C 319.867 257.768,319.611 258.009,319.924 258.017 C 320.237 258.024,321.006 257.796,321.632 257.509 C 322.258 257.222,322.514 256.981,322.201 256.974 C 321.888 256.966,321.120 257.195,320.493 257.482 M254.269 258.996 C 255.777 259.596,257.514 259.783,256.546 259.240 C 256.233 259.065,255.294 258.819,254.459 258.694 L 252.941 258.467 254.269 258.996 M315.560 259.003 C 314.725 259.278,314.383 259.508,314.801 259.514 C 315.218 259.520,316.157 259.295,316.888 259.013 C 318.598 258.355,317.551 258.347,315.560 259.003 M260.531 260.522 C 261.575 260.800,262.856 261.029,263.378 261.032 L 264.326 261.035 263.370 260.745 C 262.844 260.585,261.563 260.355,260.524 260.235 L 258.634 260.015 260.531 260.522 M309.108 260.541 L 307.211 261.047 309.108 260.832 C 310.152 260.713,311.347 260.480,311.765 260.313 L 312.524 260.010 311.765 260.023 C 311.347 260.029,310.152 260.263,309.108 260.541 M267.552 261.871 C 268.283 262.043,270.332 262.271,272.106 262.376 L 275.332 262.568 271.727 262.057 C 267.578 261.468,265.441 261.373,267.552 261.871 M299.620 262.068 L 296.584 262.560 299.431 262.357 C 300.996 262.246,302.960 262.022,303.795 261.859 L 305.313 261.563 303.985 261.569 C 303.254 261.573,301.290 261.797,299.620 262.068 M276.945 262.893 C 277.623 262.977,278.733 262.977,279.412 262.893 C 280.090 262.809,279.535 262.740,278.178 262.740 C 276.822 262.740,276.267 262.809,276.945 262.893 M291.556 262.895 C 292.339 262.977,293.620 262.977,294.402 262.895 C 295.185 262.813,294.545 262.746,292.979 262.746 C 291.414 262.746,290.773 262.813,291.556 262.895 M284.156 263.278 C 285.251 263.355,287.045 263.355,288.140 263.278 C 289.236 263.201,288.340 263.139,286.148 263.139 C 283.956 263.139,283.060 263.201,284.156 263.278 M329.212 266.888 L 326.565 269.639 329.317 266.993 C 331.872 264.535,332.242 264.137,331.963 264.137 C 331.905 264.137,330.667 265.375,329.212 266.888 M322.011 273.088 L 320.873 274.067 322.106 273.250 C 322.785 272.801,323.340 272.360,323.340 272.270 C 323.340 271.986,323.179 272.085,322.011 273.088 M298.672 273.624 C 297.920 273.865,297.881 273.928,298.482 273.928 C 298.899 273.928,299.668 273.791,300.190 273.624 C 300.941 273.384,300.981 273.320,300.380 273.320 C 299.962 273.320,299.194 273.457,298.672 273.624 M272.011 275.037 C 272.690 275.122,273.800 275.122,274.478 275.037 C 275.157 274.953,274.602 274.884,273.245 274.884 C 271.888 274.884,271.333 274.953,272.011 275.037 M285.286 275.037 C 285.959 275.121,287.155 275.122,287.942 275.040 C 288.730 274.958,288.178 274.889,286.717 274.887 C 285.256 274.886,284.612 274.953,285.286 275.037 M279.032 275.414 C 279.606 275.501,280.546 275.501,281.120 275.414 C 281.694 275.327,281.224 275.256,280.076 275.256 C 278.928 275.256,278.458 275.327,279.032 275.414 M261.769 286.037 C 262.241 286.128,262.924 286.124,263.287 286.029 C 263.650 285.934,263.264 285.860,262.429 285.864 C 261.594 285.868,261.297 285.946,261.769 286.037 M264.996 286.420 C 265.573 286.508,266.426 286.505,266.893 286.415 C 267.360 286.325,266.888 286.254,265.844 286.257 C 264.801 286.259,264.419 286.333,264.996 286.420 M284.919 286.416 C 285.391 286.507,286.074 286.504,286.437 286.409 C 286.800 286.314,286.414 286.240,285.579 286.244 C 284.744 286.248,284.447 286.326,284.919 286.416 M271.262 286.806 C 272.155 286.886,273.521 286.885,274.298 286.803 C 275.076 286.722,274.345 286.656,272.676 286.658 C 271.006 286.659,270.370 286.726,271.262 286.806 M277.714 286.806 C 278.607 286.886,279.973 286.885,280.750 286.803 C 281.527 286.722,280.797 286.656,279.127 286.658 C 277.457 286.659,276.821 286.726,277.714 286.806 M162.808 297.723 C 163.516 298.454,164.181 299.051,164.286 299.051 C 164.390 299.051,163.896 298.454,163.188 297.723 C 162.480 296.992,161.815 296.395,161.711 296.395 C 161.606 296.395,162.100 296.992,162.808 297.723 M167.742 302.657 C 168.450 303.387,169.115 303.985,169.219 303.985 C 169.323 303.985,168.830 303.387,168.121 302.657 C 167.413 301.926,166.749 301.328,166.644 301.328 C 166.540 301.328,167.034 301.926,167.742 302.657 M248.369 305.218 L 246.869 306.831 248.482 305.331 C 249.369 304.506,250.095 303.780,250.095 303.718 C 250.095 303.431,249.764 303.718,248.369 305.218 M196.964 317.630 C 197.277 317.842,197.861 318.018,198.261 318.021 C 199.232 318.029,198.929 317.811,197.533 317.499 C 196.702 317.313,196.548 317.348,196.964 317.630 M223.529 317.647 C 222.748 317.897,222.714 317.957,223.340 317.983 C 223.757 318.001,224.355 317.849,224.668 317.647 C 225.333 317.217,224.871 317.217,223.529 317.647 M209.013 319.065 C 210.109 319.142,211.902 319.142,212.998 319.065 C 214.094 318.989,213.197 318.926,211.006 318.926 C 208.814 318.926,207.917 318.989,209.013 319.065 " stroke="none" fill="#97bcd9" fill-rule="evenodd">
</path>
<path id="path4" d="M126.670 142.593 C 127.563 142.674,128.929 142.672,129.706 142.591 C 130.484 142.509,129.753 142.444,128.083 142.445 C 126.414 142.446,125.778 142.513,126.670 142.593 M133.884 142.595 C 134.987 142.672,136.694 142.671,137.679 142.593 C 138.663 142.516,137.761 142.453,135.674 142.454 C 133.586 142.455,132.781 142.518,133.884 142.595 M117.742 143.336 C 118.107 143.431,118.705 143.431,119.070 143.336 C 119.435 143.240,119.137 143.162,118.406 143.162 C 117.676 143.162,117.377 143.240,117.742 143.336 M146.300 143.475 C 148.222 143.873,149.776 143.855,148.197 143.454 C 147.571 143.294,146.546 143.163,145.920 143.163 C 144.963 143.161,145.023 143.211,146.300 143.475 M108.349 144.972 C 107.382 145.387,108.380 145.387,109.677 144.972 C 110.440 144.727,110.477 144.666,109.867 144.657 C 109.450 144.650,108.767 144.792,108.349 144.972 M154.080 144.972 C 155.377 145.387,156.375 145.387,155.408 144.972 C 154.991 144.792,154.307 144.650,153.890 144.657 C 153.280 144.666,153.317 144.727,154.080 144.972 M103.795 146.110 C 103.317 146.316,103.246 146.436,103.605 146.436 C 103.918 146.436,104.516 146.289,104.934 146.110 C 105.412 145.904,105.482 145.784,105.123 145.784 C 104.810 145.784,104.213 145.931,103.795 146.110 M162.808 147.467 C 162.808 147.724,164.780 148.440,164.968 148.252 C 165.054 148.166,164.603 147.914,163.966 147.692 C 163.329 147.470,162.808 147.369,162.808 147.467 M94.213 149.158 C 92.942 149.669,93.179 149.928,94.497 149.469 C 95.123 149.250,95.636 149.003,95.636 148.919 C 95.636 148.694,95.174 148.772,94.213 149.158 M87.666 151.992 C 87.144 152.291,86.888 152.535,87.097 152.535 C 87.306 152.535,87.903 152.291,88.425 151.992 C 88.947 151.694,89.203 151.450,88.994 151.450 C 88.786 151.450,88.188 151.694,87.666 151.992 M171.917 151.593 C 171.917 151.698,172.429 152.048,173.055 152.372 C 173.681 152.696,174.194 152.875,174.194 152.771 C 174.194 152.667,173.681 152.316,173.055 151.992 C 172.429 151.669,171.917 151.489,171.917 151.593 M179.886 156.785 C 183.869 160.728,187.907 164.356,185.389 161.728 C 183.928 160.204,181.879 158.256,180.835 157.401 C 179.791 156.545,179.364 156.268,179.886 156.785 M65.259 166.888 L 63.567 168.691 65.458 166.983 C 66.498 166.044,67.423 165.232,67.513 165.180 C 67.604 165.128,67.515 165.085,67.315 165.085 C 67.115 165.085,66.190 165.897,65.259 166.888 M190.308 168.027 C 190.894 168.914,191.445 169.639,191.533 169.639 C 191.807 169.639,190.354 167.330,189.784 166.859 C 189.487 166.614,189.723 167.139,190.308 168.027 M60.321 171.822 L 59.013 173.245 60.436 171.937 C 61.761 170.720,62.034 170.398,61.744 170.398 C 61.681 170.398,61.040 171.039,60.321 171.822 M191.103 174.784 C 190.960 175.546,190.919 176.245,191.012 176.337 C 191.104 176.430,191.297 175.883,191.440 175.121 C 191.583 174.360,191.624 173.661,191.531 173.568 C 191.438 173.475,191.246 174.022,191.103 174.784 M51.973 183.720 C 51.330 184.993,50.867 186.098,50.943 186.174 C 51.020 186.251,51.627 185.209,52.293 183.859 C 52.959 182.509,53.422 181.404,53.323 181.404 C 53.223 181.404,52.616 182.446,51.973 183.720 M190.956 186.148 C 190.950 186.565,191.092 187.249,191.271 187.666 C 191.687 188.633,191.687 187.635,191.271 186.338 C 191.027 185.575,190.965 185.538,190.956 186.148 M174.778 190.034 C 174.248 190.606,173.814 191.232,173.814 191.426 C 173.814 191.619,173.857 191.705,173.909 191.617 C 173.961 191.529,174.505 190.903,175.118 190.226 C 175.731 189.548,176.123 188.994,175.988 188.994 C 175.853 188.994,175.308 189.462,174.778 190.034 M181.404 190.253 C 181.404 190.346,182.386 191.158,183.586 192.059 C 184.787 192.959,185.563 193.441,185.311 193.130 C 184.796 192.491,181.404 189.994,181.404 190.253 M173.478 193.001 C 173.454 193.640,173.703 194.494,174.032 194.899 C 174.361 195.304,174.498 195.385,174.338 195.079 C 174.178 194.773,173.929 193.919,173.785 193.182 C 173.523 191.848,173.522 191.847,173.478 193.001 M48.055 193.975 C 47.739 195.557,48.045 195.864,48.387 194.307 C 48.531 193.651,48.570 193.035,48.473 192.939 C 48.377 192.842,48.188 193.309,48.055 193.975 M200.218 199.826 C 201.455 200.774,202.766 201.903,203.131 202.335 C 203.496 202.767,203.795 202.938,203.795 202.715 C 203.795 202.300,198.745 198.102,198.246 198.102 C 198.094 198.102,198.982 198.878,200.218 199.826 M46.788 201.708 C 46.791 202.751,46.864 203.133,46.952 202.556 C 47.039 201.980,47.037 201.126,46.946 200.659 C 46.856 200.192,46.785 200.664,46.788 201.708 M180.759 201.009 C 180.906 201.251,181.915 202.191,183.001 203.097 C 184.086 204.003,184.854 204.546,184.706 204.304 C 184.559 204.062,183.550 203.123,182.464 202.217 C 181.379 201.311,180.611 200.767,180.759 201.009 M196.964 202.036 C 196.964 202.140,197.476 202.590,198.102 203.036 C 198.729 203.482,199.241 203.761,199.241 203.657 C 199.241 203.553,198.729 203.102,198.102 202.657 C 197.476 202.211,196.964 201.931,196.964 202.036 M167.015 202.392 C 167.102 202.455,167.685 202.807,168.311 203.173 L 169.450 203.840 168.554 203.059 C 168.061 202.629,167.478 202.277,167.257 202.277 C 167.037 202.277,166.928 202.329,167.015 202.392 M46.430 206.641 C 46.431 208.311,46.498 208.947,46.578 208.054 C 46.658 207.162,46.657 205.796,46.576 205.018 C 46.494 204.241,46.429 204.972,46.430 206.641 M161.141 205.913 C 160.830 206.724,160.860 208.061,161.201 208.598 C 161.355 208.839,161.480 208.198,161.480 207.174 C 161.480 205.106,161.468 205.061,161.141 205.913 M173.435 206.950 C 173.435 207.055,174.288 207.855,175.332 208.729 C 176.376 209.602,177.230 210.232,177.230 210.128 C 177.230 210.023,176.376 209.223,175.332 208.349 C 174.288 207.475,173.435 206.846,173.435 206.950 M189.374 208.078 C 189.374 208.176,190.349 209.089,191.541 210.106 C 192.732 211.123,193.586 211.756,193.437 211.514 C 193.111 210.984,189.374 207.823,189.374 208.078 M46.783 211.765 C 46.783 212.704,46.857 213.088,46.947 212.619 C 47.038 212.149,47.038 211.380,46.947 210.911 C 46.857 210.441,46.783 210.825,46.783 211.765 M177.727 210.510 C 178.046 211.026,181.025 213.429,181.025 213.171 C 181.025 213.074,180.221 212.336,179.240 211.532 C 178.258 210.728,177.577 210.268,177.727 210.510 M166.603 213.416 C 166.603 213.513,167.737 214.483,169.121 215.572 C 170.506 216.660,171.524 217.363,171.382 217.134 C 171.076 216.639,166.603 213.159,166.603 213.416 M117.362 213.924 C 117.728 214.019,118.325 214.019,118.691 213.924 C 119.056 213.828,118.757 213.750,118.027 213.750 C 117.296 213.750,116.997 213.828,117.362 213.924 M124.388 213.931 C 124.860 214.021,125.543 214.018,125.906 213.923 C 126.269 213.828,125.882 213.754,125.047 213.758 C 124.213 213.762,123.916 213.840,124.388 213.931 M113.662 214.439 C 113.133 214.679,113.363 214.713,114.421 214.552 C 115.256 214.425,116.010 214.258,116.097 214.181 C 116.423 213.894,114.391 214.109,113.662 214.439 M129.981 214.801 C 130.398 214.980,130.996 215.127,131.309 215.127 C 131.668 215.127,131.598 215.006,131.120 214.801 C 130.702 214.621,130.104 214.475,129.791 214.475 C 129.432 214.475,129.503 214.595,129.981 214.801 M109.488 215.763 C 108.539 216.220,108.507 216.273,109.298 216.079 C 110.373 215.817,111.582 215.200,111.006 215.209 C 110.797 215.212,110.114 215.461,109.488 215.763 M125.617 215.576 C 124.796 215.758,125.376 215.793,127.135 215.666 C 128.700 215.553,130.052 215.398,130.139 215.321 C 130.415 215.075,126.999 215.268,125.617 215.576 M151.211 215.770 C 150.486 216.351,150.487 216.355,151.233 216.011 C 151.651 215.819,152.249 215.567,152.562 215.451 C 153.053 215.269,153.050 215.236,152.539 215.210 C 152.214 215.194,151.616 215.446,151.211 215.770 M155.198 215.599 C 155.708 215.803,156.314 216.091,156.544 216.239 C 156.774 216.387,156.636 216.210,156.238 215.844 C 155.839 215.479,155.234 215.191,154.892 215.204 C 154.498 215.220,154.611 215.365,155.198 215.599 M197.756 215.275 C 197.844 215.327,198.513 215.882,199.243 216.509 L 200.569 217.647 199.455 216.414 C 198.842 215.735,198.173 215.180,197.968 215.180 C 197.764 215.180,197.668 215.223,197.756 215.275 M171.917 217.595 C 171.917 217.700,172.429 218.150,173.055 218.596 C 173.681 219.042,174.194 219.321,174.194 219.217 C 174.194 219.112,173.681 218.662,173.055 218.216 C 172.429 217.770,171.917 217.491,171.917 217.595 M47.846 218.596 C 47.850 218.909,48.094 219.677,48.389 220.304 L 48.925 221.442 48.700 220.304 C 48.418 218.878,47.838 217.718,47.846 218.596 M159.511 218.479 C 159.830 218.996,162.808 221.399,162.808 221.140 C 162.808 221.043,162.005 220.306,161.023 219.502 C 160.042 218.697,159.361 218.237,159.511 218.479 M187.476 218.357 C 187.476 218.462,188.757 219.594,190.323 220.873 C 191.888 222.152,193.169 223.113,193.169 223.009 C 193.169 222.905,191.888 221.773,190.323 220.493 C 188.757 219.214,187.476 218.253,187.476 218.357 M100.861 221.347 C 98.712 223.426,98.672 223.489,100.533 221.853 C 103.614 219.145,103.791 218.975,103.540 218.975 C 103.415 218.975,102.209 220.043,100.861 221.347 M203.036 219.467 C 203.036 219.564,203.839 220.301,204.821 221.106 C 205.803 221.910,206.484 222.370,206.334 222.128 C 206.015 221.612,203.036 219.208,203.036 219.467 M164.706 222.586 C 164.706 222.854,181.425 236.164,181.557 236.000 C 181.618 235.925,177.851 232.834,173.187 229.132 C 168.522 225.429,164.706 222.484,164.706 222.586 M206.927 224.858 C 206.931 225.693,207.009 225.989,207.100 225.517 C 207.190 225.045,207.187 224.362,207.092 223.999 C 206.997 223.637,206.923 224.023,206.927 224.858 M150.493 224.199 C 150.692 224.359,151.366 224.913,151.992 225.431 L 153.131 226.373 152.016 225.141 C 151.403 224.463,150.729 223.909,150.517 223.909 C 150.279 223.909,150.269 224.019,150.493 224.199 M105.266 226.281 C 104.146 227.560,103.491 228.463,103.685 228.463 C 103.780 228.463,104.407 227.780,105.078 226.945 C 106.380 225.324,106.512 224.859,105.266 226.281 M51.944 228.653 C 52.149 229.070,52.594 229.753,52.934 230.171 L 53.552 230.930 53.180 230.171 C 52.975 229.753,52.529 229.070,52.189 228.653 L 51.571 227.894 51.944 228.653 M157.495 229.721 C 157.495 229.825,158.349 230.625,159.393 231.499 C 160.436 232.373,161.290 233.002,161.290 232.898 C 161.290 232.794,160.436 231.993,159.393 231.120 C 158.349 230.246,157.495 229.616,157.495 229.721 M188.615 230.506 C 188.615 230.610,189.639 231.484,190.892 232.448 C 192.144 233.411,193.169 234.115,193.169 234.010 C 193.169 233.906,192.144 233.032,190.892 232.068 C 189.639 231.105,188.615 230.402,188.615 230.506 M93.023 233.054 C 92.790 233.722,92.612 234.457,92.626 234.687 C 92.641 234.916,92.898 234.436,93.197 233.619 C 93.496 232.803,93.675 232.068,93.594 231.987 C 93.513 231.906,93.256 232.386,93.023 233.054 M194.495 235.277 C 195.397 236.422,195.506 236.843,195.359 238.614 C 195.265 239.747,195.328 240.424,195.502 240.149 C 196.277 238.929,195.850 236.470,194.644 235.205 L 193.462 233.966 194.495 235.277 M56.167 234.654 C 56.167 234.719,56.722 235.274,57.400 235.887 L 58.634 237.002 57.519 235.769 C 56.480 234.619,56.167 234.361,56.167 234.654 M100.027 236.270 C 99.888 236.826,99.846 237.354,99.936 237.444 C 100.025 237.533,100.213 237.151,100.352 236.595 C 100.492 236.039,100.533 235.511,100.444 235.421 C 100.354 235.332,100.167 235.714,100.027 236.270 M166.349 237.088 C 166.505 237.340,167.941 238.616,169.540 239.922 C 171.139 241.229,172.336 242.118,172.201 241.898 C 172.065 241.679,170.629 240.403,169.010 239.064 C 167.391 237.725,166.193 236.835,166.349 237.088 M185.372 239.173 C 186.216 239.949,187.048 240.590,187.221 240.596 C 187.393 240.602,186.966 240.148,186.272 239.587 C 184.143 237.866,183.760 237.690,185.372 239.173 M62.619 240.036 C 62.619 240.290,67.219 242.585,67.389 242.415 C 67.465 242.339,66.423 241.731,65.073 241.066 C 63.723 240.400,62.619 239.937,62.619 240.036 M99.186 243.833 C 99.185 245.712,99.249 246.528,99.329 245.647 C 99.408 244.766,99.409 243.229,99.331 242.232 C 99.252 241.234,99.187 241.954,99.186 243.833 M68.880 243.088 C 69.507 243.374,70.275 243.604,70.588 243.597 C 70.901 243.591,70.560 243.355,69.829 243.074 C 68.097 242.407,67.415 242.417,68.880 243.088 M74.598 244.452 C 76.127 244.781,82.215 244.796,84.023 244.475 C 84.860 244.327,82.892 244.213,79.494 244.213 C 76.189 244.213,73.986 244.320,74.598 244.452 M174.953 244.131 C 174.953 244.230,175.928 245.142,177.119 246.159 C 178.311 247.176,179.164 247.810,179.016 247.568 C 178.690 247.037,174.953 243.876,174.953 244.131 M99.864 250.854 C 99.864 251.167,100.010 251.765,100.190 252.182 C 100.395 252.661,100.516 252.731,100.516 252.372 C 100.516 252.059,100.369 251.461,100.190 251.044 C 99.984 250.565,99.864 250.495,99.864 250.854 M183.681 251.342 C 183.681 251.440,184.656 252.353,185.848 253.369 C 187.040 254.386,187.893 255.020,187.744 254.778 C 187.419 254.248,183.681 251.087,183.681 251.342 M217.426 255.546 C 217.931 256.168,219.355 257.109,219.355 256.821 C 219.355 256.749,218.800 256.283,218.121 255.786 C 217.358 255.228,217.093 255.136,217.426 255.546 M211.172 257.560 C 210.587 258.326,210.303 258.834,210.540 258.687 C 211.026 258.387,212.668 256.167,212.405 256.167 C 212.311 256.167,211.756 256.794,211.172 257.560 M103.036 259.203 C 103.360 259.829,103.710 260.342,103.815 260.342 C 103.919 260.342,103.739 259.829,103.416 259.203 C 103.092 258.577,102.741 258.065,102.637 258.065 C 102.533 258.065,102.712 258.577,103.036 259.203 M221.822 258.641 C 222.239 258.981,222.922 259.426,223.340 259.631 L 224.099 260.004 223.340 259.386 C 222.922 259.046,222.239 258.600,221.822 258.395 L 221.063 258.023 221.822 258.641 M192.528 258.707 C 192.847 259.223,195.825 261.627,195.825 261.368 C 195.825 261.271,195.022 260.534,194.040 259.729 C 193.059 258.925,192.378 258.465,192.528 258.707 M208.521 260.766 C 207.696 261.626,206.509 262.650,205.882 263.042 C 205.256 263.434,204.974 263.755,205.256 263.756 C 205.731 263.757,210.688 259.226,210.229 259.210 C 210.115 259.206,209.346 259.907,208.521 260.766 M226.186 261.271 C 226.186 261.375,226.698 261.726,227.324 262.049 C 227.951 262.373,228.463 262.553,228.463 262.448 C 228.463 262.344,227.951 261.994,227.324 261.670 C 226.698 261.346,226.186 261.166,226.186 261.271 M331.309 264.159 C 331.309 264.380,331.173 264.477,331.007 264.374 C 330.840 264.271,330.456 264.347,330.153 264.542 C 329.735 264.812,329.809 264.869,330.461 264.778 C 331.422 264.643,332.554 263.757,331.765 263.757 C 331.514 263.757,331.309 263.938,331.309 264.159 M108.523 266.509 C 110.096 268.184,110.436 268.485,110.436 268.200 C 110.436 268.140,109.625 267.328,108.634 266.398 L 106.831 264.706 108.523 266.509 M235.674 266.224 C 236.195 266.522,236.793 266.766,237.002 266.766 C 237.211 266.766,236.954 266.522,236.433 266.224 C 235.911 265.926,235.313 265.682,235.104 265.682 C 234.896 265.682,235.152 265.926,235.674 266.224 M322.011 267.755 C 321.062 268.212,321.031 268.265,321.822 268.072 C 322.897 267.809,324.106 267.193,323.529 267.201 C 323.321 267.204,322.638 267.454,322.011 267.755 M326.755 268.797 C 325.816 269.680,324.364 270.972,323.529 271.667 C 322.281 272.706,322.238 272.780,323.288 272.083 C 324.592 271.216,328.996 267.204,328.653 267.195 C 328.548 267.193,327.694 267.913,326.755 268.797 M313.852 270.398 C 313.121 270.680,312.780 270.915,313.093 270.922 C 313.406 270.928,314.175 270.699,314.801 270.412 C 316.266 269.741,315.585 269.731,313.852 270.398 M251.044 271.727 C 251.461 271.906,252.059 272.053,252.372 272.053 C 252.731 272.053,252.661 271.932,252.182 271.727 C 251.765 271.547,251.167 271.401,250.854 271.401 C 250.495 271.401,250.565 271.521,251.044 271.727 M308.918 271.727 C 308.137 271.977,308.103 272.036,308.729 272.063 C 309.146 272.080,309.744 271.929,310.057 271.727 C 310.722 271.297,310.260 271.297,308.918 271.727 M257.306 273.245 C 257.827 273.412,258.681 273.545,259.203 273.542 C 260.055 273.535,260.036 273.505,259.013 273.245 C 257.408 272.836,256.030 272.836,257.306 273.245 M301.898 273.245 C 300.875 273.505,300.856 273.535,301.708 273.542 C 302.230 273.545,303.083 273.412,303.605 273.245 C 304.881 272.836,303.503 272.836,301.898 273.245 M147.249 274.757 C 146.524 274.985,146.725 275.043,148.100 275.004 C 149.090 274.976,149.901 274.824,149.902 274.668 C 149.906 274.314,148.510 274.361,147.249 274.757 M265.564 274.652 C 266.036 274.742,266.719 274.739,267.082 274.644 C 267.445 274.549,267.059 274.475,266.224 274.479 C 265.389 274.483,265.092 274.561,265.564 274.652 M293.648 274.652 C 294.120 274.742,294.803 274.739,295.166 274.644 C 295.529 274.549,295.142 274.475,294.307 274.479 C 293.472 274.483,293.176 274.561,293.648 274.652 M268.596 275.031 C 269.065 275.121,269.834 275.121,270.304 275.031 C 270.773 274.940,270.389 274.866,269.450 274.866 C 268.510 274.866,268.126 274.940,268.596 275.031 M290.043 275.035 C 290.620 275.122,291.474 275.120,291.941 275.030 C 292.407 274.940,291.935 274.869,290.892 274.871 C 289.848 274.874,289.466 274.948,290.043 275.035 M274.099 275.419 C 274.881 275.501,276.162 275.501,276.945 275.419 C 277.728 275.337,277.087 275.270,275.522 275.270 C 273.956 275.270,273.316 275.337,274.099 275.419 M283.207 275.419 C 283.990 275.501,285.270 275.501,286.053 275.419 C 286.836 275.337,286.195 275.270,284.630 275.270 C 283.065 275.270,282.424 275.337,283.207 275.419 M128.368 276.163 C 128.733 276.258,129.331 276.258,129.696 276.163 C 130.062 276.067,129.763 275.989,129.032 275.989 C 128.302 275.989,128.003 276.067,128.368 276.163 M134.915 276.281 L 130.361 276.508 134.535 276.556 C 136.831 276.582,139.478 276.467,140.417 276.300 C 142.467 275.936,141.887 275.934,134.915 276.281 M150.502 277.040 C 150.642 277.562,150.914 278.245,151.108 278.558 C 151.352 278.954,151.382 278.838,151.206 278.178 C 151.066 277.657,150.794 276.973,150.600 276.660 C 150.356 276.265,150.326 276.380,150.502 277.040 M151.830 280.266 C 151.830 280.474,152.074 281.072,152.372 281.594 C 152.670 282.116,152.914 282.372,152.914 282.163 C 152.914 281.954,152.670 281.357,152.372 280.835 C 152.074 280.313,151.830 280.057,151.830 280.266 M307.970 280.659 C 307.016 281.118,306.985 281.170,307.780 280.978 C 308.302 280.852,308.891 280.598,309.089 280.413 C 309.581 279.953,309.311 280.012,307.970 280.659 M153.510 283.871 C 153.834 284.497,154.185 285.009,154.289 285.009 C 154.393 285.009,154.214 284.497,153.890 283.871 C 153.566 283.245,153.216 282.732,153.111 282.732 C 153.007 282.732,153.187 283.245,153.510 283.871 M292.410 285.009 C 291.394 285.268,291.374 285.299,292.220 285.299 C 292.742 285.299,293.681 285.169,294.307 285.009 C 295.323 284.751,295.343 284.720,294.497 284.720 C 293.975 284.720,293.036 284.850,292.410 285.009 M264.231 286.030 C 264.597 286.126,265.194 286.126,265.560 286.030 C 265.925 285.935,265.626 285.857,264.896 285.857 C 264.165 285.857,263.866 285.935,264.231 286.030 M285.863 286.030 C 286.229 286.126,286.826 286.126,287.192 286.030 C 287.557 285.935,287.258 285.857,286.528 285.857 C 285.797 285.857,285.498 285.935,285.863 286.030 M271.632 286.509 C 273.980 286.624,277.823 286.624,280.171 286.509 C 283.143 286.364,281.846 286.301,275.901 286.301 C 269.957 286.301,268.660 286.364,271.632 286.509 M161.670 296.134 C 161.670 296.199,162.225 296.754,162.903 297.367 L 164.137 298.482 163.022 297.249 C 161.983 296.099,161.670 295.841,161.670 296.134 M251.273 301.911 C 250.625 302.649,250.095 303.366,250.095 303.505 C 250.095 303.644,250.224 303.595,250.382 303.397 C 250.541 303.198,251.170 302.481,251.782 301.803 C 252.393 301.124,252.794 300.569,252.672 300.569 C 252.550 300.569,251.921 301.173,251.273 301.911 M167.742 302.206 C 167.742 302.271,168.297 302.826,168.975 303.439 L 170.209 304.554 169.094 303.321 C 168.055 302.171,167.742 301.913,167.742 302.206 M247.818 305.313 C 246.896 306.252,246.227 307.021,246.332 307.021 C 246.436 307.021,247.276 306.252,248.197 305.313 C 249.119 304.374,249.788 303.605,249.684 303.605 C 249.579 303.605,248.740 304.374,247.818 305.313 M243.877 308.537 C 242.073 309.902,241.693 310.291,242.694 309.748 C 243.564 309.275,245.826 307.429,245.541 307.425 C 245.436 307.423,244.688 307.923,243.877 308.537 M234.156 314.042 C 233.634 314.340,233.378 314.584,233.586 314.584 C 233.795 314.584,234.393 314.340,234.915 314.042 C 235.436 313.743,235.693 313.499,235.484 313.499 C 235.275 313.499,234.677 313.743,234.156 314.042 M188.615 314.926 C 188.928 315.120,189.611 315.392,190.133 315.532 C 190.792 315.708,190.908 315.678,190.512 315.434 C 190.199 315.241,189.516 314.968,188.994 314.829 C 188.335 314.652,188.219 314.682,188.615 314.926 M231.309 315.194 C 230.360 315.651,230.329 315.703,231.120 315.510 C 232.195 315.247,233.404 314.631,232.827 314.640 C 232.619 314.643,231.935 314.892,231.309 315.194 M227.135 316.509 C 226.656 316.714,226.586 316.835,226.945 316.835 C 227.258 316.835,227.856 316.688,228.273 316.509 C 228.752 316.303,228.822 316.182,228.463 316.182 C 228.150 316.182,227.552 316.329,227.135 316.509 M199.810 318.027 C 200.436 318.186,201.461 318.317,202.087 318.318 C 203.045 318.319,202.984 318.269,201.708 318.005 C 199.785 317.607,198.232 317.625,199.810 318.027 M219.070 318.288 C 219.435 318.384,220.033 318.384,220.398 318.288 C 220.764 318.193,220.465 318.115,219.734 318.115 C 219.004 318.115,218.705 318.193,219.070 318.288 M204.269 318.668 C 204.635 318.763,205.232 318.763,205.598 318.668 C 205.963 318.572,205.664 318.494,204.934 318.494 C 204.203 318.494,203.904 318.572,204.269 318.668 M215.844 318.674 C 216.314 318.764,217.083 318.764,217.552 318.674 C 218.022 318.583,217.638 318.509,216.698 318.509 C 215.759 318.509,215.375 318.583,215.844 318.674 " stroke="none" fill="#7c849d" fill-rule="evenodd">
</path>
</g></svg>